<svg id="Capa_1" enable-background="new 0 0 512 512" height="512" viewBox="0 0 512 512" width="512" xmlns="http://www.w3.org/2000/svg"><path d="m512 256c0 107.833-66.675 200.098-161.04 237.808-29.361 11.735-61.408 18.192-94.96 18.192s-65.599-6.457-94.96-18.192c-94.365-37.71-161.04-129.975-161.04-237.808 0-53.833 16.614-103.8 45.014-145.021 13.511-19.634 29.696-37.282 48.034-52.423 44.272-36.582 101.042-58.556 162.952-58.556s118.68 21.974 162.952 58.556c18.338 15.141 34.523 32.789 48.034 52.423 28.4 41.221 45.014 91.188 45.014 145.021z" fill="#5c5560"/><path d="m466.986 110.979c-1.243-25.307-3.302-40.647-3.302-40.647l-44.732-11.776-162.952-42.883-162.952 42.883-44.732 11.776s-2.058 15.339-3.302 40.647c-4.117 83.383.502 275.017 116.025 382.83 29.362 11.734 61.409 18.191 94.961 18.191s65.599-6.457 94.96-18.192c115.524-107.812 120.143-299.447 116.026-382.829z" fill="#518ef8"/><circle cx="256" cy="269.824" fill="#3a5bbc" r="147.571"/><g fill="#f2f2f2"><path d="m256 169.855c31.754 0 57.497 25.742 57.497 57.497s-25.743 57.497-57.497 57.497-57.51-25.742-57.51-57.497 25.756-57.497 57.51-57.497z"/><path d="m370.228 363.237c-27.053 33.052-68.182 54.149-114.228 54.149-46.06 0-87.174-21.096-114.228-54.149 17.654-45.855 62.142-78.388 114.228-78.388s96.575 32.532 114.228 78.388z"/></g></svg>