<svg id="Layer_3" height="512" viewBox="0 0 64 64" width="512" xmlns="http://www.w3.org/2000/svg" data-name="Layer 3"><path d="m5 12h54v20h-54z" fill="#c0dafc"/><path d="m19 16h6v12h-6z" fill="#f2f2f2"/><path d="m2 32h60v10h-60z" fill="#5e87ca"/><path d="m59 37v-5h-57v7h55a2 2 0 0 0 2-2z" fill="#78a0d4"/><path d="m2 6h60v6h-60z" fill="#5e87ca"/><path d="m59 8v-2h-57v3h56a1 1 0 0 0 1-1z" fill="#78a0d4"/><path d="m29 16h6v12h-6z" fill="#f2f2f2"/><path d="m39 16h6v12h-6z" fill="#f2f2f2"/><path d="m49 16h6v12h-6z" fill="#f2f2f2"/><g fill="#fff"><path d="m49 16h4v10h-4z"/><path d="m39 16h4v10h-4z"/><path d="m29 16h4v10h-4z"/><path d="m19 16h4v10h-4z"/></g><path d="m4 42v20h56v-20" fill="#c0dafc"/><path d="m20 58v-14.429l2.2-1.571h1.8v16z" fill="#5e87ca"/><path d="m44 58v-14.429l-2.2-1.571h-1.8v16z" fill="#5e87ca"/><path d="m41.8 42h-19.6l9.8-7z" fill="#3b5892"/><path d="m32 35 14 10 3-3-17-12-17 12 3 3z" fill="#4c6cb5"/><circle cx="32" cy="11" fill="#f0ae42" r="9"/><path d="m39 10a8.991 8.991 0 0 0 -3.977-7.469 9 9 0 0 0 -8.046 15.938 8.981 8.981 0 0 0 12.023-8.469z" fill="#f9d266"/><path d="m36 9v-1a3 3 0 0 0 -3-3v-1h-2v1a3 3 0 0 0 -3 3v1a3 3 0 0 0 3 3v3a1 1 0 0 1 -1-1v-1h-2v1a3 3 0 0 0 3 3v1h2v-1a3 3 0 0 0 3-3v-1a3 3 0 0 0 -3-3v-3a1 1 0 0 1 1 1v1zm-2 4v1a1 1 0 0 1 -1 1v-3a1 1 0 0 1 1 1zm-3-3a1 1 0 0 1 -1-1v-1a1 1 0 0 1 1-1z" fill="#d5883e"/><path d="m9 16h6v12h-6z" fill="#f2f2f2"/><path d="m18 62v-4h8v4" fill="#4c6cb5"/><path d="m38 62v-4h8v4" fill="#4c6cb5"/><path d="m29 62v-10a3 3 0 0 1 3-3 3 3 0 0 1 3 3v10" fill="#4c6cb5"/><path d="m48 47h8v9h-8z" fill="#f2f2f2"/><path d="m48 47h6v7h-6z" fill="#fff"/><path d="m8 47h8v9h-8z" fill="#f2f2f2"/><path d="m8 47h6v7h-6z" fill="#fff"/><path d="m9 16h4v10h-4z" fill="#fff"/></svg>