<?xml version="1.0" encoding="iso-8859-1"?>
<!-- Generator: Adobe Illustrator 19.0.0, SVG Export Plug-In . SVG Version: 6.00 Build 0)  -->
<svg version="1.1" id="Capa_1" xmlns="http://www.w3.org/2000/svg" xmlns:xlink="http://www.w3.org/1999/xlink" x="0px" y="0px"
	 viewBox="0 0 511.999 511.999" style="enable-background:new 0 0 511.999 511.999;" xml:space="preserve">
<path style="fill:#F7695B;" d="M472.467,255.213H39.531c-8.264,0-14.963-6.699-14.963-14.963V22.489
	c0-8.264,6.699-14.963,14.963-14.963h432.936c8.264,0,14.963,6.699,14.963,14.963v217.76
	C487.43,248.513,480.731,255.213,472.467,255.213z"/>
<path style="fill:#E2524B;" d="M487.433,22.54v217.656c0,8.299-6.723,15.012-15.022,15.012h-42.688
	c8.289,0,15.012-6.713,15.012-15.012V22.54c0-8.289-6.723-15.012-15.012-15.012h42.688C480.71,7.528,487.433,14.251,487.433,22.54z"
	/>
<path style="fill:#DFE5EA;" d="M472.467,504.474H39.531c-8.264,0-14.963-6.699-14.963-14.963V271.75
	c0-8.264,6.699-14.963,14.963-14.963h432.936c8.264,0,14.963,6.699,14.963,14.963v217.76
	C487.43,497.775,480.731,504.474,472.467,504.474z"/>
<path style="fill:#CBD0D3;" d="M487.433,271.806v217.656c0,8.289-6.723,15.012-15.022,15.012h-39.166
	c8.299,0,15.022-6.723,15.022-15.012V271.806c0-8.299-6.723-15.022-15.022-15.022h39.166
	C480.71,256.784,487.433,263.507,487.433,271.806z"/>
<path style="fill:#FDCA6C;" d="M266.208,176.012H77.316c-2.761,0-5-2.239-5-5v-36.679c0-2.761,2.239-5,5-5h188.892
	c2.761,0,5,2.239,5,5v36.679C271.208,173.774,268.97,176.012,266.208,176.012z"/>
<path style="fill:#F7AF3C;" d="M271.212,134.348v36.647c0,2.77-2.248,5.017-5.017,5.017h-31.499c2.77,0,5.017-2.248,5.017-5.017
	v-36.647c0-2.77-2.248-5.017-5.017-5.017h31.499C268.964,129.331,271.212,131.579,271.212,134.348z"/>
<path d="M487.43,99.568c4.157,0,7.526-3.37,7.526-7.526v-69.5C494.956,10.112,484.844,0,472.415,0H39.583
	C27.154,0,17.042,10.112,17.042,22.541v217.656c0,6.151,2.479,11.731,6.487,15.802c-4.008,4.071-6.487,9.652-6.487,15.802v217.656
	c0,12.429,10.112,22.541,22.541,22.541H186.76c4.157,0,7.526-3.37,7.526-7.526c0-4.157-3.369-7.526-7.526-7.526H39.583
	c-4.13,0-7.489-3.359-7.489-7.489V271.802c0-4.13,3.359-7.489,7.489-7.489h432.833c4.13,0,7.489,3.359,7.489,7.489v217.656
	c0,4.13-3.359,7.489-7.489,7.489H240.447c-4.157,0-7.526,3.37-7.526,7.526s3.369,7.526,7.526,7.526h231.969
	c12.429,0,22.541-10.112,22.541-22.541V271.802c0-6.151-2.479-11.731-6.487-15.802c4.008-4.071,6.487-9.652,6.487-15.802v-94.08
	c0-4.157-3.369-7.526-7.526-7.526c-4.157,0-7.526,3.37-7.526,7.526v94.08c0,4.13-3.359,7.489-7.489,7.489H39.583
	c-4.13,0-7.489-3.359-7.489-7.489V22.541c0-4.13,3.359-7.489,7.489-7.489h432.833c4.13,0,7.489,3.359,7.489,7.489v69.5
	C479.904,96.198,483.273,99.568,487.43,99.568z"/>
<path d="M72.317,75.899h102.401c4.157,0,7.526-3.37,7.526-7.526c0-4.157-3.369-7.526-7.526-7.526H72.317
	c-4.157,0-7.526,3.37-7.526,7.526S68.16,75.899,72.317,75.899z"/>
<path d="M72.317,99.568h144.994c4.157,0,7.526-3.37,7.526-7.526c0-4.157-3.369-7.526-7.526-7.526H72.317
	c-4.157,0-7.526,3.37-7.526,7.526S68.16,99.568,72.317,99.568z"/>
<path d="M278.735,170.995V134.35c0-6.917-5.627-12.544-12.544-12.544H77.334c-6.917,0-12.543,5.627-12.543,12.544v36.644
	c0,6.917,5.627,12.544,12.543,12.544h188.857C273.108,183.538,278.735,177.911,278.735,170.995z M263.682,168.486H79.843v-31.627
	h183.84L263.682,168.486L263.682,168.486z"/>
<path d="M72.317,205.778c-4.157,0-7.526,3.37-7.526,7.526c0,4.157,3.369,7.526,7.526,7.526h58.371c4.157,0,7.526-3.37,7.526-7.526
	s-3.369-7.526-7.526-7.526H72.317z"/>
<path d="M450.66,468.554V292.707c0-4.157-3.369-7.526-7.526-7.526H68.864c-4.157,0-7.526,3.37-7.526,7.526v175.847
	c0,4.156,3.369,7.526,7.526,7.526h374.27C447.291,476.08,450.66,472.711,450.66,468.554z M154.982,461.028H76.39v-123.52h78.591
	v123.52H154.982z M154.982,322.456H76.39v-22.223h78.591v22.223H154.982z M248.473,461.028h-78.439v-123.52h78.439V461.028z
	 M248.473,322.456h-78.439v-22.223h78.439V322.456z M341.964,461.028h-78.438v-123.52h78.438V461.028L341.964,461.028z
	 M341.964,322.456h-78.438v-22.223h78.438V322.456L341.964,322.456z M435.608,461.028h-78.591v-123.52h78.591V461.028z
	 M435.608,322.456h-78.591v-22.223h78.591V322.456z"/>
<g>
</g>
<g>
</g>
<g>
</g>
<g>
</g>
<g>
</g>
<g>
</g>
<g>
</g>
<g>
</g>
<g>
</g>
<g>
</g>
<g>
</g>
<g>
</g>
<g>
</g>
<g>
</g>
<g>
</g>
</svg>
