<svg id="Layer_1" enable-background="new 0 0 512 512" height="512" viewBox="0 0 512 512" width="512" xmlns="http://www.w3.org/2000/svg" xmlns:xlink="http://www.w3.org/1999/xlink"><linearGradient id="SVGID_1_" gradientUnits="userSpaceOnUse" x1="256" x2="256" y1="0" y2="512"><stop offset="0" stop-color="#01f1fe"/><stop offset="1" stop-color="#4fadfe"/></linearGradient><path d="m336.091 175.959c-4.134 1.763-8.905 1.069-12.365-1.797-9.216-7.636-19.554-13.612-30.725-17.765-4.21-1.564-7.193-5.349-7.732-9.807l-3.457-28.59h-51.623l-3.457 28.59c-.539 4.458-3.522 8.243-7.732 9.808-11.177 4.155-21.514 10.131-30.724 17.764-3.46 2.868-8.233 3.562-12.366 1.798l-26.515-11.313-25.812 44.707 23.046 17.3c3.588 2.693 5.374 7.163 4.63 11.587-.986 5.858-1.485 11.833-1.485 17.759s.5 11.901 1.485 17.759c.744 4.424-1.042 8.894-4.63 11.587l-23.046 17.301 25.812 44.706 26.515-11.312c1.515-.646 3.117-.962 4.707-.962 2.749 0 5.466.943 7.658 2.759 9.216 7.636 19.553 13.612 30.725 17.765 4.21 1.564 7.193 5.349 7.732 9.807l3.458 28.59h51.623l3.458-28.59c.539-4.458 3.522-8.243 7.732-9.807 11.177-4.155 21.514-10.131 30.724-17.764 3.459-2.867 8.231-3.562 12.366-1.798l26.515 11.312 25.812-44.707-23.046-17.3c-3.588-2.693-5.374-7.163-4.63-11.586.985-5.861 1.485-11.836 1.485-17.76 0-5.926-.5-11.901-1.485-17.759-.745-4.424 1.041-8.894 4.629-11.587l23.046-17.301-25.812-44.706zm-80.091 136.726c-31.256 0-56.685-25.429-56.685-56.685s25.429-56.685 56.685-56.685 56.684 25.429 56.684 56.685-25.428 56.685-56.684 56.685zm32.684-56.685c0 18.022-14.662 32.685-32.684 32.685s-32.685-14.662-32.685-32.685 14.662-32.685 32.685-32.685c18.022 0 32.684 14.663 32.684 32.685zm-32.684-256c-141.159 0-256 114.841-256 256s114.841 256 256 256c141.158 0 255.999-114.841 255.999-256s-114.841-256-255.999-256zm130.227 256c0 4.791-.267 9.609-.795 14.395l25.9 19.443c4.854 3.644 6.223 10.339 3.188 15.597l-36.448 63.129c-3.035 5.257-9.518 7.418-15.102 5.038l-29.784-12.707c-7.768 5.728-16.116 10.554-24.941 14.42l-3.885 32.126c-.729 6.026-5.843 10.559-11.913 10.559h-72.895c-6.07 0-11.185-4.533-11.913-10.559l-3.885-32.126c-8.822-3.864-17.17-8.691-24.94-14.42l-29.785 12.707c-5.584 2.382-12.066.219-15.101-5.038l-36.448-63.129c-3.035-5.257-1.667-11.953 3.188-15.597l25.9-19.443c-.529-4.785-.795-9.603-.795-14.396s.267-9.61.795-14.396l-25.9-19.443c-4.854-3.644-6.223-10.34-3.188-15.597l36.448-63.129c3.035-5.257 9.519-7.42 15.102-5.038l29.784 12.707c7.768-5.728 16.115-10.554 24.941-14.42l3.885-32.125c.729-6.026 5.843-10.56 11.913-10.56h72.895c6.071 0 11.185 4.533 11.914 10.559l3.885 32.126c8.822 3.864 17.17 8.691 24.94 14.42l29.785-12.707c5.584-2.382 12.066-.22 15.101 5.038l36.448 63.129c3.035 5.257 1.667 11.953-3.188 15.597l-25.9 19.443c.528 4.786.794 9.604.794 14.397z" fill="url(#SVGID_1_)"/></svg>