<svg id="Capa_1" enable-background="new 0 0 512 512" height="512" viewBox="0 0 512 512" width="512" xmlns="http://www.w3.org/2000/svg"><path d="m362.141 33.322h73.084v110.127h-73.084z" fill="#eadfda"/><path d="m362.141 33.322h18.623v110.127h-18.623z" fill="#c6beb9"/><path d="m443.684 206.62v297.88h-375.373v-297.88l8.901-8.962 19.609-19.759 114.062-114.915 45.119-45.45 45.129 45.46 133.591 134.594z" fill="#eadfda"/><path d="m96.821 177.899v326.601h-28.51v-297.88l8.901-8.962z" fill="#c6beb9"/><path d="m443.684 206.62v54.532c-80.132-95.356-187.681-154.775-187.681-154.775s-107.56 59.419-187.692 154.785v-54.542l8.901-8.962 133.671-134.674c27.226-15.916 45.119-23.443 45.119-23.443s17.903 7.537 45.129 23.453l133.591 134.594z" fill="#c6beb9"/><path d="m256 7.5s154.158 64.867 245.816 216.282l-33.147 37.673c-80.463-114.076-212.669-187.12-212.669-187.12s-132.206 73.044-212.669 187.12l-33.147-37.673c91.658-151.415 245.816-216.282 245.816-216.282z" fill="#da4a54"/><path d="m174.906 226.544h162.187v204.235h-162.187z" fill="#b9e4ef"/><path d="m83.447 420.434h345.104v52.06h-345.104z" fill="#934d36"/><g fill="#aa593d"><path d="m101.154 399.076-30.702-20.023-30.702 20.023v105.424h61.404z"/><path d="m193.928 399.076-30.702-20.023-30.702 20.023v105.424h61.404z"/><path d="m286.701 399.076-30.702-20.023-30.702 20.023v105.424h61.404z"/><path d="m472.248 399.076-30.702-20.023-30.702 20.023v105.424h61.404z"/><path d="m379.474 399.076-30.701-20.023-30.702 20.023v105.424h61.403z"/></g><path d="m462.541 265.773c1.324 1.876 3.434 3.043 5.727 3.167.135.007.269.011.403.011 2.148 0 4.202-.923 5.63-2.545l33.15-37.67c2.164-2.458 2.481-6.037.786-8.838-19.772-32.661-42.449-61.25-65.512-85.862v-100.717c0-4.142-3.358-7.5-7.5-7.5h-73.077c-4.142 0-7.5 3.358-7.5 7.5v23.537c-1.959-1.411-3.899-2.797-5.796-4.131-50.082-35.203-88.338-51.463-89.942-52.139-1.86-.782-3.958-.783-5.818 0-2.219.934-55.077 23.442-117.803 72.872-3.253 2.563-3.813 7.279-1.249 10.533s7.279 3.813 10.533 1.249c46.388-36.555 91.411-60.655 111.395-69.551 9.789 4.45 43.448 20.581 84.604 49.551 44.004 30.976 105.669 83.277 151.961 157.742l-23.28 26.455c-41.413-56.174-94.533-101.611-132.572-130.306-43.04-32.465-75.684-50.6-77.052-51.356-2.258-1.247-4.996-1.247-7.254 0-1.368.756-34.013 18.891-77.052 51.356-32.131 24.237-75.02 60.421-112.526 104.929-.166.181-.323.37-.472.566-6.731 8.01-13.289 16.284-19.575 24.81l-23.28-26.455c26.717-42.986 61.112-82.946 102.299-118.837 3.123-2.721 3.448-7.459.727-10.582-2.721-3.124-7.459-3.448-10.582-.727-43.851 38.212-80.237 80.961-108.148 127.06-1.697 2.802-1.378 6.38.785 8.839l33.15 37.67c1.517 1.724 3.749 2.661 6.033 2.535 2.293-.123 4.403-1.29 5.727-3.167 3.674-5.209 7.468-10.329 11.351-15.367v125.981l-25.157 16.406c-2.123 1.385-3.403 3.748-3.403 6.282v105.426c0 4.142 3.358 7.5 7.5 7.5h432.5c4.142 0 7.5-3.358 7.5-7.5v-23.6c0-4.142-3.358-7.5-7.5-7.5s-7.5 3.358-7.5 7.5v16.1h-21.07-25.34v-93.857l23.209-15.138 23.201 15.138v47.878c0 4.142 3.358 7.5 7.5 7.5s7.5-3.358 7.5-7.5v-51.94c0-2.534-1.28-4.896-3.402-6.281l-25.168-16.421v-125.987c3.884 5.042 7.681 10.166 11.359 15.381zm-92.895-197.762v-27.192h58.077v77.788c-20.028-19.836-39.926-36.675-58.077-50.596zm-301.336 428.989h-21.06v-93.861l23.202-15.132 23.202 15.131v93.862zm40.344-17.003h16.37v17.003h-16.37zm16.37-15h-16.367v-37.063h16.367zm15 32.003v-93.862l23.202-15.131 23.202 15.131v93.862zm173.949-104.207c-2.123 1.385-3.403 3.748-3.403 6.282v13.858h-16.369v-13.858c0-2.535-1.28-4.897-3.403-6.282l-27.299-17.804v-64.858h66.089v72.478zm-3.403 72.204h-16.369v-37.063h16.369zm-16.369 15h16.369v17.003h-16.369zm35.387-184.865h-66.089v-61.092h66.089zm-81.089 0h-66.093v-61.092h66.093zm-66.093 15h66.093v64.858l-27.299 17.803c-2.123 1.385-3.403 3.748-3.403 6.282v13.858h-16.37v-13.858c0-2.535-1.28-4.897-3.403-6.282l-15.619-10.186v-72.475zm35.391 154.865h-16.37v-37.063h16.37zm-16.369 15h16.37v17.003h-16.37zm31.369 17.003v-93.862l23.202-15.131 23.202 15.131v93.862zm92.773 0v-93.862l23.202-15.131 23.202 15.131v93.862zm77.77-32.003h-16.365v-37.063h16.365zm-16.365 32.003v-17.003h16.365v17.003zm49.205-123.402-29.438 19.2c-2.123 1.384-3.403 3.748-3.403 6.282v13.854h-16.365v-13.858c0-2.535-1.28-4.897-3.403-6.282l-30.701-20.024c-2.49-1.624-5.704-1.624-8.194 0l-.087.057v-70.109c0-.029.004-.058.004-.087s-.004-.058-.004-.087v-76.004c0-4.142-3.358-7.5-7.5-7.5h-162.183c-4.142 0-7.5 3.358-7.5 7.5v76.082.01s0 .006 0 .01v70.183l-.083-.054c-2.49-1.624-5.704-1.624-8.194 0l-30.702 20.023c-2.123 1.385-3.403 3.748-3.403 6.282v13.858h-16.37v-13.858c0-2.535-1.28-4.897-3.403-6.282l-29.441-19.202v-141.692c70.002-82.32 161.029-137.736 180.191-148.916 19.163 11.173 110.149 66.535 180.179 148.9z"/></svg>