<svg height="512" viewBox="0 0 60 60" width="512" xmlns="http://www.w3.org/2000/svg"><g id="Page-1" fill="none" fill-rule="evenodd"><g id="053---Notifications" fill-rule="nonzero"><path id="Shape" d="m35 54c0 2.7614237-2.2385763 5-5 5h-24c-1.32608245 0-2.59785201-.5267842-3.53553391-1.4644661-.93768189-.9376819-1.46446609-2.2094515-1.46446609-3.5355339v-48c0-2.76142375 2.23857625-5 5-5h24c1.3260824 0 2.597852.5267842 3.5355339 1.46446609.9376819.9376819 1.4644661 2.20945146 1.4644661 3.53553391z" fill="#00bcd4"/><path id="Shape" d="m30 1h-3c1.3260824 0 2.597852.5267842 3.5355339 1.46446609.9376819.9376819 1.4644661 2.20945146 1.4644661 3.53553391v48c0 2.7614237-2.2385763 5-5 5h3c2.7614237 0 5-2.2385763 5-5v-48c0-1.32608245-.5267842-2.59785201-1.4644661-3.53553391-.9376819-.93768189-2.2094515-1.46446609-3.5355339-1.46446609z" fill="#00838f"/><path id="Shape" d="m29 1-2.447 4.894c-.3386882.67778095-1.0313083 1.10597427-1.789 1.106h-13.528c-.7576917-.00002573-1.45031181-.42821905-1.789-1.106l-2.447-4.894z" fill="#607d8b"/><path id="Shape" d="m21 24-11.474 6.12c-.3234232.1745653-.52502632.5124736-.52502632.88s.20160312.7054347.52502632.88l11.474 6.12v7c0 2.7614237 2.2385763 5 5 5h28c2.7614237 0 5-2.2385763 5-5v-28c0-2.7614237-2.2385763-5-5-5h-28c-2.7614237 0-5 2.2385763-5 5z" fill="#f5f5f5"/><path id="Shape" d="m54 12h-3c2.7614237 0 5 2.2385763 5 5v28c0 2.7614237-2.2385763 5-5 5h3c2.7614237 0 5-2.2385763 5-5v-28c0-1.3260824-.5267842-2.597852-1.4644661-3.5355339s-2.2094515-1.4644661-3.5355339-1.4644661z" fill="#cfd8dc"/><path id="Shape" d="m51 39h-22c-.3147573 0-.6111456-.1481942-.8-.4s-.248132-.577833-.16-.88l2.48-7.37c.3187769-1.0880972.480411-2.2161684.48-3.35 0-4.9705627 4.0294373-9 9-9s9 4.0294373 9 9c-.000411 1.1338316.1612231 2.2619028.48 3.35l2.48 7.37c.088132.302167.0288544.6281942-.16.88s-.4852427.4-.8.4z" fill="#ffeb3a"/><path id="Shape" d="m51.96 37.72-2.48-7.37c-.3187769-1.0880972-.480411-2.2161684-.48-3.35-.007709-4.9673661-4.0326339-8.992291-9-9-.5028835.0032224-1.0046224.0483789-1.5.135 4.3269061.7313783 7.495553 4.4767189 7.5 8.865-.000411 1.1338316.1612231 2.2619028.48 3.35l2.48 7.37c.088132.302167.0288544.6281942-.16.88s-.4852427.4-.8.4h3c.3147573 0 .6111456-.1481942.8-.4s.248132-.577833.16-.88z" fill="#fdd834"/><path id="Shape" d="m44 40c0 2.209139-1.790861 4-4 4s-4-1.790861-4-4c-.0030533-.3377372.0406959-.6742693.13-1h7.74c.0893041.3257307.1330533.6622628.13 1z" fill="#fec108"/><g fill="#000"><path id="Shape" d="m35 53c-.5522847 0-1 .4477153-1 1 0 2.209139-1.790861 4-4 4h-24c-2.209139 0-4-1.790861-4-4v-48c0-2.209139 1.790861-4 4-4h.382l2.171 4.342c.50533538 1.01876412 1.5457972 1.66173306 2.683 1.658h13.528c1.1372028.00373306 2.1776646-.63923588 2.683-1.658l2.171-4.342h.382c2.209139 0 4 1.790861 4 4v2c0 .55228475.4477153 1 1 1s1-.44771525 1-1v-2c-.0033074-3.31233757-2.6876624-5.99669262-6-6h-24c-3.31233757.00330738-5.99669262 2.68766243-6 6v48c.00330738 3.3123376 2.68766243 5.9966926 6 6h24c3.3123376-.0033074 5.9966926-2.6876624 6-6 0-.5522847-.4477153-1-1-1zm-9.342-47.553c-.1681765.33972034-.514933.55421288-.894.553h-13.528c-.379067.00121288-.7258235-.21327966-.894-.553l-1.724-3.447h18.764z"/><path id="Shape" d="m26 56c.5522847 0 1-.4477153 1-1s-.4477153-1-1-1h-16c-.55228475 0-1 .4477153-1 1s.44771525 1 1 1z"/><path id="Shape" d="m54 11h-28c-3.3123376.0033074-5.9966926 2.6876624-6 6v6.4l-10.949 5.839c-.64943321.3483176-1.05469912 1.0255545-1.05469912 1.7625s.40526591 1.4141824 1.05469912 1.7625l10.949 5.836v6.4c.0033074 3.3123376 2.6876624 5.9966926 6 6h28c3.3123376-.0033074 5.9966926-2.6876624 6-6v-28c-.0033074-3.3123376-2.6876624-5.9966926-6-6zm4 34c0 2.209139-1.790861 4-4 4h-28c-2.209139 0-4-1.790861-4-4v-7c.0003202-.3694555-.2030909-.7089865-.529-.883l-11.471-6.117 11.474-6.119c.3241156-.1744763.5261749-.5129065.526-.881v-7c0-2.209139 1.790861-4 4-4h28c2.209139 0 4 1.790861 4 4z"/><path id="Shape" d="m52.908 37.4-2.47-7.329c-.2907953-.9977375-.4382707-2.0317493-.438-3.071 0-5.5228475-4.4771525-10-10-10s-10 4.4771525-10 10c.0010945 1.0256574-.1423148 2.0463545-.426 3.032l-2.494 7.408c-.1762641.604334-.0577088 1.2563883.32 1.76s.9704854.8 1.6.8h6c0 2.7614237 2.2385763 5 5 5s5-2.2385763 5-5h6c.6295146 0 1.2222912-.2963883 1.6-.8s.4962641-1.155666.32-1.76zm-12.908 5.6c-1.6568542 0-3-1.3431458-3-3h6c0 1.6568542-1.3431458 3-3 3zm4.012-4.988c-.0296478-.0014943-.0593522-.0014943-.089 0l-7.665.013c-.1046469-.0170062-.2113531-.0170062-.316 0l-6.954.012 2.493-7.407c.3443428-1.179249.5190951-2.4015049.519-3.63.0000001-4.4182779 3.5817221-7.9999998 8-7.9999998s7.9999999 3.5817219 8 7.9999998c.0006223 1.2427573.1794421 2.4790046.531 3.671l2.469 7.329z"/></g></g></g></svg>