<svg id="Layer_1" enable-background="new 0 0 510 510" height="512" viewBox="0 0 510 510" width="512" xmlns="http://www.w3.org/2000/svg"><g><g><g><path d="m255 1c-98.131 0-158.58 55.352-158.747 55.445 0 0-2.513 3.137-2.983 5.222-3.818 16.948-7.385 39.663-7.385 56.238 0 140.833 118.763 254.972 259.596 254.972 54.231 0 114.568-25.992 154.949-57.243.903-.699 3.769-5.396 3.769-5.396.178-1.087 5.8-23.477 5.8-54.239.001-140.832-114.166-254.999-254.999-254.999z" fill="#fef056"/></g><g><path d="m345.459 365.679c-140.833 0-255-114.167-255-255 0-18.615 2.007-36.753 5.795-54.234-58.645 46.72-96.254 118.747-96.254 199.555 0 60.95 21.384 116.906 57.058 160.774l395.884.005c24.71-30.373 42.611-66.626 51.258-106.54-43.56 34.695-98.724 55.44-158.741 55.44z" fill="#fed402"/></g></g><g><g><path d="m428.26 0h-235.089l-20.565 408.603 20.565 94.85c12.682 3.158 25.739 5.367 39.092 6.547h45.421c37.366-3.307 72.551-14.705 103.691-32.502l3.267-6.328 9.826-1.686c22.084-14.447 41.825-32.242 58.474-52.706v-392.096c-.001-13.632-11.051-24.682-24.682-24.682z" fill="#2696ff"/></g><g><path d="m81.74 0c-13.631 0-24.681 11.05-24.681 24.682v392.092c13.397 16.474 28.81 31.244 45.862 43.933l90.25-36.92v-28.674l-12.639-77.08 12.639-13.17v-28.674l-8.896-77.275 8.896-12.975v-185.939z" fill="#2577f8"/></g><g><g><path d="m248.053 140.207c-16.72-.557-30.374-9.196-30.374-18.113 0-4.737 4.18-11.704 9.475-11.704 5.852 0 10.589 8.221 20.899 10.032v-22.571c-12.818-4.877-27.866-10.868-27.866-28.702 0-17.695 13.097-26.194 27.866-28.284v-3.901c0-1.951 2.229-3.762 5.294-3.762 2.647 0 5.295 1.811 5.295 3.762v3.483c8.638.279 24.939 2.508 24.939 12.122 0 3.762-2.508 11.425-8.639 11.425-4.598 0-7.245-4.458-16.301-5.155v20.342c12.679 4.737 27.447 11.286 27.447 30.095 0 17.276-11.146 27.726-27.447 30.374v4.041c0 1.95-2.647 3.762-5.295 3.762-3.065 0-5.294-1.812-5.294-3.762v-3.484zm1.392-64.37v-16.58c-6.27 1.254-8.917 4.458-8.917 7.803 0 4.04 3.623 6.548 8.917 8.777zm7.803 25.776v18.67c4.737-1.115 8.499-3.762 8.499-8.778 0-4.598-3.483-7.524-8.499-9.892z" fill="#fed402"/></g></g><g><g><path d="m311.067 76.933h55.358v22h-55.358z" fill="#fed402"/></g></g><g><g><path d="m137.74 76.933h55.358v22h-55.358z" fill="#ffc344"/></g></g><g><g><path d="m102.921 185.939h90.25v90.25h-90.25z" fill="#fff"/></g></g><g><g><path d="m228.449 222.564h163.535v17h-163.535z" fill="#fff"/></g></g><g><g><path d="m102.921 304.863h90.25v90.25h-90.25z" fill="#fff"/></g></g><g><g><path d="m229.691 341.488h163.535v17h-163.535z" fill="#fff"/></g></g><g><path d="m102.921 460.707c26.575 19.775 57.132 34.497 90.25 42.746v-79.665h-90.25z" fill="#fff"/></g><g><path d="m394.468 469.484v-9.072h-163.534v17h150.592c4.396-2.516 8.712-5.161 12.942-7.928z" fill="#fff"/></g><g><g><path d="m167.897 268.378-45.763-45.762 21.213-21.214 24.55 24.551 43.692-43.692 21.213 21.213z" fill="#bbec6c"/></g></g><g><g><path d="m167.897 390.554-45.763-45.762 21.213-21.214 24.55 24.55 43.692-43.692 21.213 21.213z" fill="#bbec6c"/></g></g></g></g></svg>