<svg id="Capa_1" enable-background="new 0 0 512 512" height="512" viewBox="0 0 512 512" width="512" xmlns="http://www.w3.org/2000/svg"><g><g><path d="m305.937 424.053h-99.877s-.935 58.759-8.411 80.222h116.7c-7.477-21.463-8.412-80.222-8.412-80.222z" fill="#c5d3dd"/><path d="m306.671 444.686h-101.344c.598-11.933.732-20.628.732-20.628h99.88s.134 8.695.732 20.628z" fill="#b6c4cf"/><path d="m0 359.999v-265.564c0-14.425 11.694-26.119 26.119-26.119h459.76c14.425 0 26.119 11.694 26.119 26.119v265.564z" fill="#596c76"/><path d="m0 371.761v-277.326c0-14.425 11.694-26.119 26.119-26.119h459.76c14.425 0 26.119 11.694 26.119 26.119v277.327h-511.998z" fill="#596c76"/><path d="m512 94.431v265.573h-20.628v-265.573c0-14.419-11.696-26.115-26.125-26.115h20.628c14.429 0 26.125 11.696 26.125 26.115z" fill="#465a61"/><g><path d="m479.748 371.761h-447.498v-256.54c0-6.308 5.114-11.422 11.422-11.422h424.655c6.308 0 11.422 5.114 11.422 11.422v256.54z" fill="#82aee3"/><path d="m479.748 115.227v244.777h-20.628v-244.777c0-6.312-5.116-11.428-11.417-11.428h20.628c6.302 0 11.417 5.116 11.417 11.428z" fill="#528fd8"/></g><path d="m485.879 426.389h-459.76c-14.425 0-26.119-11.694-26.119-26.119v-40.27h511.998v40.271c0 14.424-11.694 26.118-26.119 26.118z" fill="#d9e7ec"/><path d="m511.998 359.999v40.266c0 14.429-11.696 26.125-26.125 26.125h-20.628c14.419 0 26.115-11.696 26.115-26.125v-40.266z" fill="#c5d3dd"/><g><path d="m273.606 400.919h-35.214c-4.266 0-7.725-3.459-7.725-7.725s3.459-7.725 7.725-7.725h35.214c4.266 0 7.725 3.459 7.725 7.725s-3.459 7.725-7.725 7.725z" fill="#b6c4cf"/></g><g><g><path d="m346.98 512h-181.962c-4.266 0-7.725-3.459-7.725-7.725s3.459-7.725 7.725-7.725h181.962c4.266 0 7.725 3.459 7.725 7.725s-3.459 7.725-7.725 7.725z" fill="#b6c4cf"/></g></g></g><g><g><path d="m223.987 122.04v-24.25c0-2.824 2.29-5.114 5.114-5.114h16.862c2.36 0 4.387-1.621 4.968-3.908 2.044-8.039 5.228-15.623 9.366-22.573 1.204-2.021.907-4.594-.756-6.258l-11.935-11.936c-1.997-1.997-1.997-5.235 0-7.232l17.147-17.148c1.997-1.997 5.235-1.997 7.233 0l11.935 11.935c1.664 1.664 4.236 1.96 6.258.756 6.949-4.138 14.533-7.322 22.573-9.366 2.287-.581 3.908-2.609 3.908-4.968v-16.86c0-2.824 2.29-5.114 5.114-5.114h24.25c2.824 0 5.114 2.29 5.114 5.114v16.862c0 2.36 1.621 4.387 3.908 4.968 8.039 2.044 15.623 5.228 22.573 9.366 2.021 1.204 4.594.907 6.258-.756l11.935-11.935c1.997-1.997 5.235-1.997 7.233 0l17.145 17.147c1.997 1.997 1.997 5.235 0 7.232l-11.935 11.935c-1.663 1.664-1.96 4.236-.756 6.258 4.138 6.949 7.322 14.533 9.366 22.573.581 2.287 2.609 3.908 4.968 3.908h16.862c2.824 0 5.114 2.29 5.114 5.114v24.25c0 2.824-2.29 5.114-5.114 5.114h-16.862c-2.36 0-4.387 1.621-4.968 3.908-2.044 8.039-5.228 15.623-9.366 22.573-1.204 2.021-.907 4.594.756 6.258l11.935 11.935c1.997 1.997 1.997 5.235 0 7.232l-17.147 17.148c-1.997 1.997-5.235 1.997-7.233 0l-11.935-11.935c-1.664-1.664-4.236-1.96-6.258-.756-6.95 4.138-14.533 7.322-22.573 9.366-2.287.581-3.908 2.609-3.908 4.968v16.862c0 2.824-2.29 5.114-5.114 5.114h-24.25c-2.824 0-5.114-2.29-5.114-5.114v-16.863c0-2.359-1.621-4.387-3.908-4.968-8.039-2.044-15.623-5.228-22.573-9.366-2.021-1.204-4.594-.907-6.258.756l-11.935 11.935c-1.997 1.997-5.235 1.997-7.233 0l-17.147-17.148c-1.997-1.997-1.997-5.235 0-7.232l11.935-11.936c1.664-1.663 1.96-4.236.756-6.258-4.138-6.949-7.322-14.533-9.366-22.573-.581-2.287-2.609-3.908-4.968-3.908h-16.862c-2.823.002-5.112-2.288-5.112-5.112z" fill="#8d9ca8"/><g fill="#7a8c98"><path d="m363.091 29.427c-.405 1.73-3.029 6.359-4.047 7.618-1.565 1.935-4.171 2.69-6.555 1.976-9.043-2.707-10.371-4.244-14.393-6.127-1.981-.927-3.324-2.829-3.324-5.017v-27.878h11.248c2.832 0 5.113 2.292 5.113 5.113v16.868c0 2.353 1.63 4.39 3.911 4.971 2.74.694 5.429 1.519 8.047 2.476z"/><path d="m371.826 186.66c-3.98 1.75-11.23 4.67-15.88 5.98-.3.09-.6.16-.9.24-1.29.33-2.36 1.11-3.06 2.16-.23.34-.42.72-.56 1.12-.1.26-.17.54-.22.82s-.07.58-.07.87v16.86c0 2.77-2.2 5.03-4.94 5.11h-13.98c1.09-.96 1.77-2.38 1.77-3.95v-25.36c0-2.46 1.7-4.58 4.08-5.18 8.41-2.14 16.29-4.65 23.55-8.96 2.11-1.27 4.8-.95 6.54.78z"/><path d="m408.256 59.935c-1.66 1.671-1.966 4.237-.754 6.264 4.064 6.825 7.201 14.271 9.249 22.165h-13.058c-2.465 0-4.584-1.691-5.195-4.074-2.139-8.403-5.46-16.328-9.789-23.591-1.253-2.108-.947-4.798.795-6.539l8.405-8.405c2.088-2.088 2.088-5.47 0-7.558l-8.342-8.332 6.242-6.243c1.997-1.996 5.236-1.996 7.232 0l17.153 17.153c1.997 1.996 1.997 5.225 0 7.232z"/><path d="m443.805 97.786v24.253c0 2.822-2.282 5.113-5.113 5.113h-16.858c-2.363 0-4.39 1.62-4.971 3.911-2.047 8.037-5.226 15.625-9.361 22.572-1.212 2.017-.907 4.594.754 6.254l11.938 11.938c1.997 1.996 1.997 5.236 0 7.232l-17.153 17.143c-1.996 1.997-5.236 1.997-7.232 0l-7.863-7.861 10.15-9.747c2.088-2.088 2.088-5.47 0-7.558l-10.625-10.319c-1.742-1.742-2.047-4.431-.795-6.539 4.329-7.263 13.406-28.385 15.546-36.778.611-2.394 2.73-4.085 5.195-4.085h13.355c2.954 0 5.78-2.394 5.78-5.348v-15.295h12.142c2.829 0 5.111 2.292 5.111 5.114z"/></g><circle cx="333.897" cy="109.915" fill="#596c76" r="50.637"/><path d="m384.536 109.91c0 27.97-22.67 50.64-50.64 50.64-11.96 0-22.96-4.15-31.63-11.09 4.91 1.58 10.14 2.44 15.57 2.44 27.96 0 50.63-22.67 50.63-50.64 0-15.99-7.41-30.25-18.98-39.53 20.34 6.57 35.05 25.66 35.05 48.18z" fill="#465a61"/><circle cx="333.897" cy="109.915" fill="#d9e7ec" r="22.74"/><path d="m356.636 109.91c0 12.56-10.18 22.75-22.74 22.75-9.1 0-16.96-5.35-20.59-13.08 2.3.79 4.78 1.22 7.35 1.22 12.56 0 22.75-10.18 22.75-22.74 0-3.46-.77-6.74-2.16-9.67 8.95 3.05 15.39 11.54 15.39 21.52z" fill="#c5d3dd"/><path d="m68.192 246.384v-18.571c0-2.163 1.753-3.917 3.917-3.917h12.913c1.807 0 3.36-1.241 3.805-2.993 1.565-6.157 4.003-11.965 7.173-17.287.922-1.548.695-3.518-.579-4.792l-9.14-9.141c-1.53-1.53-1.53-4.009 0-5.539l13.132-13.132c1.53-1.53 4.009-1.53 5.539 0l9.14 9.14c1.274 1.274 3.244 1.501 4.792.579 5.322-3.169 11.13-5.607 17.287-7.173 1.751-.445 2.993-1.998 2.993-3.805v-12.913c0-2.163 1.753-3.917 3.917-3.917h18.571c2.163 0 3.917 1.753 3.917 3.917v12.913c0 1.807 1.241 3.36 2.993 3.805 6.157 1.565 11.965 4.003 17.287 7.173 1.548.922 3.518.695 4.792-.579l9.14-9.14c1.529-1.53 4.009-1.53 5.539 0l13.132 13.132c1.53 1.53 1.53 4.009 0 5.539l-9.14 9.141c-1.274 1.274-1.501 3.244-.579 4.792 3.169 5.322 5.607 11.13 7.173 17.287.445 1.751 1.998 2.993 3.805 2.993h12.913c2.163 0 3.917 1.753 3.917 3.917v18.571c0 2.163-1.754 3.917-3.917 3.917h-12.913c-1.807 0-3.36 1.241-3.805 2.993-1.565 6.157-4.003 11.965-7.173 17.287-.922 1.548-.695 3.518.579 4.792l9.14 9.14c1.53 1.53 1.53 4.009 0 5.539l-13.132 13.132c-1.53 1.53-4.009 1.53-5.539 0l-9.14-9.14c-1.274-1.274-3.244-1.501-4.792-.579-5.322 3.169-11.13 5.607-17.287 7.173-1.751.445-2.993 1.998-2.993 3.805v12.913c0 2.163-1.754 3.917-3.917 3.917h-18.571c-2.163 0-3.917-1.753-3.917-3.917v-12.913c0-1.807-1.241-3.36-2.993-3.805-6.157-1.565-11.965-4.004-17.287-7.173-1.548-.922-3.518-.695-4.792.579l-9.14 9.14c-1.53 1.53-4.009 1.53-5.539 0l-13.132-13.132c-1.53-1.529-1.53-4.009 0-5.539l9.14-9.141c1.274-1.274 1.501-3.244.579-4.792-3.169-5.322-5.607-11.13-7.173-17.287-.445-1.751-1.998-2.993-3.805-2.993h-12.914c-2.163 0-3.916-1.753-3.916-3.916z" fill="#8d9ca8"/><path d="m168.556 173.56c3.31.84 6.52 1.94 9.6 3.26l-3.844 9.08c-1.27 1.28-3.191 1.412-4.79.58-6.538-3.401-8.058-3.543-14.809-6.703-1.637-.766-2.99-2-2.99-3.8v-19.137c0-2.16-1.75-3.91-3.91-3.91h13.834c2.17 0 3.92 1.75 3.92 3.91v12.92c-.001 1.8 1.239 3.35 2.989 3.8z" fill="#7a8c98"/><path d="m204.244 220.9c-2.423 0-4.528-1.591-5.272-3.897-1.521-4.715-3.561-9.201-6.045-13.383-.93-1.55-.7-3.52.57-4.8l9.14-9.14c1.53-1.53 1.53-4.01 0-5.53l-8-8 5.14-5.14c1.53-1.53 4.01-1.53 5.54 0l13.13 13.14c1.53 1.52 1.53 4 0 5.53l-9.14 9.14c-1.27 1.28-1.5 3.25-.58 4.8 3.17 5.32 5.61 11.13 7.18 17.28z" fill="#7a8c98"/><path d="m218.096 250.64c-1.07.49-1.89 1.45-2.19 2.65-1.57 6.16-4.01 11.97-7.18 17.29-.92 1.55-.69 3.52.58 4.79l9.14 9.14c1.53 1.53 1.53 4.01 0 5.54l-13.13 13.13c-1.53 1.53-4.01 1.53-5.54 0l-5.13-5.13 7.99-8c1.53-1.53 1.53-4.01 0-5.54l-9.14-9.14c-1.27-1.27-1.5-3.24-.57-4.79 3.16-5.32 5.6-11.13 7.17-17.29.092-.364.232-.765.412-1.15.437-.932 1.405-1.5 2.434-1.5z" fill="#7a8c98"/><path d="m236.536 227.81v18.57c0 2.17-1.75 3.92-3.92 3.92h-12.91c-.22 0-.44.02-.66.06 0 0 1.68-1.334 1.68-3.98v-18.57c0-1.52-.87-3.26-2.13-3.9 0 0 .93-.01 1.11-.01h12.91c2.17 0 3.92 1.75 3.92 3.91z" fill="#7a8c98"/><circle cx="152.364" cy="237.098" fill="#d9e7ec" r="32.181"/><path d="m184.546 237.1c0 17.77-14.41 32.18-32.18 32.18-10.78 0-20.32-5.3-26.16-13.43 3.99 1.77 8.41 2.76 13.06 2.76 17.78 0 32.18-14.41 32.18-32.18 0-7-2.23-13.47-6.02-18.75 11.26 5.01 19.12 16.3 19.12 29.42z" fill="#c5d3dd"/></g><path d="m173.94 288.05 4.198 9.321c-3.08 1.33-6.29 2.43-9.6 3.27-1.75.44-2.99 1.99-2.99 3.8v12.91c0 2.17-1.75 3.92-3.92 3.92h-12.732c2.16 0 3.91-1.75 3.91-3.92v-20.62c0-1.81 1.24-3.36 2.99-3.8 6.16-1.57 8.034-2.291 13.354-5.461 1.55-.92 3.52-.69 4.79.58z" fill="#7a8c98"/></g></g></svg>